<?xml version="1.0" standalone="no"?>
<!DOCTYPE svg PUBLIC "-//W3C//DTD SVG 20010904//EN"
 "http://www.w3.org/TR/2001/REC-SVG-20010904/DTD/svg10.dtd">
<svg version="1.0" xmlns="http://www.w3.org/2000/svg"
 width="512.000000pt" height="512.000000pt" viewBox="0 0 512.000000 512.000000"
 preserveAspectRatio="xMidYMid meet">

<g transform="translate(0.000000,512.000000) scale(0.100000,-0.100000)"
fill="#000000" stroke="none">
<path d="M3835 5059 c-4 -6 -14 -88 -22 -182 -8 -100 -20 -180 -27 -192 -10
-15 -38 -25 -121 -40 -115 -21 -141 -37 -119 -72 10 -17 49 -29 177 -53 47
-10 60 -16 67 -36 6 -14 16 -100 24 -191 11 -139 16 -168 32 -180 21 -15 24
-16 44 -3 11 7 19 54 31 190 12 134 20 185 31 197 9 8 62 24 120 34 106 20
130 33 121 69 -6 21 -35 31 -143 50 -94 16 -98 18 -109 53 -5 18 -15 102 -21
187 -7 85 -17 161 -22 168 -13 15 -54 16 -63 1z"/>
<path d="M1607 4533 c-13 -13 -7 -61 9 -67 42 -16 74 16 54 54 -10 19 -49 27
-63 13z"/>
<path d="M2866 4374 c-31 -30 -8 -69 36 -62 30 4 38 46 12 65 -23 17 -29 16
-48 -3z"/>
<path d="M592 4317 c-6 -7 -18 -90 -26 -185 -8 -94 -20 -180 -26 -191 -6 -12
-25 -23 -48 -27 -124 -21 -178 -36 -189 -51 -30 -39 -3 -56 115 -77 66 -12
106 -24 117 -36 12 -13 20 -62 31 -191 8 -95 20 -179 26 -186 14 -17 43 -17
57 0 6 8 17 92 25 187 12 141 18 177 33 191 11 10 57 24 113 34 109 19 130 28
130 55 0 28 -35 46 -115 59 -115 19 -125 22 -136 42 -5 11 -17 97 -25 191 -8
95 -20 178 -26 185 -6 7 -18 13 -28 13 -10 0 -22 -6 -28 -13z"/>
<path d="M4595 4155 c-185 -34 -416 -124 -783 -307 -158 -78 -287 -149 -293
-159 -12 -23 4 -59 28 -59 9 0 68 20 132 44 262 100 466 145 555 122 80 -20
-33 -197 -289 -451 -71 -71 -163 -158 -202 -193 l-72 -63 -30 58 c-76 150
-245 340 -391 440 -148 101 -314 172 -493 210 -124 27 -410 24 -535 -5 -519
-120 -904 -547 -988 -1097 -19 -120 -14 -322 10 -435 45 -208 125 -372 268
-547 l59 -72 -128 -64 c-332 -167 -631 -251 -641 -181 -11 77 144 314 357 547
39 42 71 83 71 91 0 7 -9 21 -20 31 -18 16 -22 16 -42 3 -53 -35 -324 -283
-478 -437 -331 -332 -490 -576 -450 -695 45 -136 298 -120 720 46 183 72 515
238 723 361 l148 88 82 -45 c168 -92 384 -146 581 -146 632 0 1190 470 1292
1085 15 96 16 146 1 425 -2 34 4 41 138 155 622 527 956 917 959 1117 1 73
-22 107 -90 130 -58 20 -103 21 -199 3z m-1895 -440 c379 -62 716 -295 872
-603 l38 -77 -23 -20 c-358 -299 -733 -576 -1162 -860 -234 -155 -558 -355
-575 -355 -5 0 -43 39 -85 88 -111 128 -196 303 -246 507 -45 180 -31 511 28
700 107 338 373 562 742 625 82 14 311 11 411 -5z m1015 -1104 c11 -154 -13
-327 -67 -479 -44 -125 -71 -175 -136 -245 -200 -218 -433 -354 -690 -403
-105 -20 -297 -18 -407 5 -89 18 -228 68 -274 98 l-24 15 44 28 c226 143 519
337 693 458 206 144 667 486 776 576 30 25 60 45 66 46 8 0 14 -35 19 -99z"/>
<path d="M1177 3873 c-11 -11 -8 -48 5 -61 18 -18 133 -15 152 4 19 19 20 36
4 52 -13 13 -149 17 -161 5z"/>
<path d="M672 2498 c-7 -7 -12 -20 -12 -29 0 -43 72 -53 78 -11 6 42 -37 69
-66 40z"/>
<path d="M4502 2308 c-33 -33 17 -88 53 -58 25 21 15 64 -15 68 -14 2 -31 -3
-38 -10z"/>
<path d="M4270 1065 c-26 -32 13 -81 48 -59 34 22 22 74 -18 74 -10 0 -23 -7
-30 -15z"/>
<path d="M2500 1010 c-10 -6 -18 -56 -30 -190 -12 -129 -21 -185 -31 -195 -8
-9 -61 -24 -118 -35 -57 -11 -107 -23 -112 -26 -13 -8 -11 -50 4 -62 6 -5 57
-17 112 -27 55 -10 106 -23 114 -31 10 -9 19 -67 31 -191 8 -98 19 -184 23
-190 14 -22 56 -15 67 10 5 12 14 92 20 177 7 85 17 166 23 179 10 21 26 27
117 45 58 12 111 25 118 29 6 5 12 19 12 33 0 29 -16 37 -115 53 -116 19 -122
21 -133 45 -6 13 -16 95 -22 182 -15 188 -30 226 -80 194z"/>
<path d="M3361 931 c-14 -25 -5 -48 20 -56 27 -9 51 13 47 44 -4 34 -51 43
-67 12z"/>
<path d="M1180 452 c-16 -13 -21 -24 -16 -40 15 -46 76 -35 76 14 0 34 -32 48
-60 26z"/>
</g>
</svg>
