<svg version="1.1" xmlns="http://www.w3.org/2000/svg" xmlns:xlink="http://www.w3.org/1999/xlink" width="512.000000pt" height="512.000000pt" viewBox="0,0,256,256"><g fill="#fa5252" fill-rule="nonzero" stroke="none" stroke-width="1" stroke-linecap="butt" stroke-linejoin="miter" stroke-miterlimit="10" stroke-dasharray="" stroke-dashoffset="0" font-family="none" font-weight="none" font-size="none" text-anchor="none" style="mix-blend-mode: normal"><g transform="translate(0.05067,-0.01078) scale(0.5,0.5)"><g transform="translate(0,512) scale(0.1,-0.1)"><path d="M3835,5059c-4,-6 -14,-88 -22,-182c-8,-100 -20,-180 -27,-192c-10,-15 -38,-25 -121,-40c-115,-21 -141,-37 -119,-72c10,-17 49,-29 177,-53c47,-10 60,-16 67,-36c6,-14 16,-100 24,-191c11,-139 16,-168 32,-180c21,-15 24,-16 44,-3c11,7 19,54 31,190c12,134 20,185 31,197c9,8 62,24 120,34c106,20 130,33 121,69c-6,21 -35,31 -143,50c-94,16 -98,18 -109,53c-5,18 -15,102 -21,187c-7,85 -17,161 -22,168c-13,15 -54,16 -63,1z"></path><path d="M1607,4533c-13,-13 -7,-61 9,-67c42,-16 74,16 54,54c-10,19 -49,27 -63,13z"></path><path d="M2866,4374c-31,-30 -8,-69 36,-62c30,4 38,46 12,65c-23,17 -29,16 -48,-3z"></path><path d="M592,4317c-6,-7 -18,-90 -26,-185c-8,-94 -20,-180 -26,-191c-6,-12 -25,-23 -48,-27c-124,-21 -178,-36 -189,-51c-30,-39 -3,-56 115,-77c66,-12 106,-24 117,-36c12,-13 20,-62 31,-191c8,-95 20,-179 26,-186c14,-17 43,-17 57,0c6,8 17,92 25,187c12,141 18,177 33,191c11,10 57,24 113,34c109,19 130,28 130,55c0,28 -35,46 -115,59c-115,19 -125,22 -136,42c-5,11 -17,97 -25,191c-8,95 -20,178 -26,185c-6,7 -18,13 -28,13c-10,0 -22,-6 -28,-13z"></path><path d="M4595,4155c-185,-34 -416,-124 -783,-307c-158,-78 -287,-149 -293,-159c-12,-23 4,-59 28,-59c9,0 68,20 132,44c262,100 466,145 555,122c80,-20 -33,-197 -289,-451c-71,-71 -163,-158 -202,-193l-72,-63l-30,58c-76,150 -245,340 -391,440c-148,101 -314,172 -493,210c-124,27 -410,24 -535,-5c-519,-120 -904,-547 -988,-1097c-19,-120 -14,-322 10,-435c45,-208 125,-372 268,-547l59,-72l-128,-64c-332,-167 -631,-251 -641,-181c-11,77 144,314 357,547c39,42 71,83 71,91c0,7 -9,21 -20,31c-18,16 -22,16 -42,3c-53,-35 -324,-283 -478,-437c-331,-332 -490,-576 -450,-695c45,-136 298,-120 720,46c183,72 515,238 723,361l148,88l82,-45c168,-92 384,-146 581,-146c632,0 1190,470 1292,1085c15,96 16,146 1,425c-2,34 4,41 138,155c622,527 956,917 959,1117c1,73 -22,107 -90,130c-58,20 -103,21 -199,3zM2700,3715c379,-62 716,-295 872,-603l38,-77l-23,-20c-358,-299 -733,-576 -1162,-860c-234,-155 -558,-355 -575,-355c-5,0 -43,39 -85,88c-111,128 -196,303 -246,507c-45,180 -31,511 28,700c107,338 373,562 742,625c82,14 311,11 411,-5zM3715,2611c11,-154 -13,-327 -67,-479c-44,-125 -71,-175 -136,-245c-200,-218 -433,-354 -690,-403c-105,-20 -297,-18 -407,5c-89,18 -228,68 -274,98l-24,15l44,28c226,143 519,337 693,458c206,144 667,486 776,576c30,25 60,45 66,46c8,0 14,-35 19,-99z"></path><path d="M1177,3873c-11,-11 -8,-48 5,-61c18,-18 133,-15 152,4c19,19 20,36 4,52c-13,13 -149,17 -161,5z"></path><path d="M672,2498c-7,-7 -12,-20 -12,-29c0,-43 72,-53 78,-11c6,42 -37,69 -66,40z"></path><path d="M4502,2308c-33,-33 17,-88 53,-58c25,21 15,64 -15,68c-14,2 -31,-3 -38,-10z"></path><path d="M4270,1065c-26,-32 13,-81 48,-59c34,22 22,74 -18,74c-10,0 -23,-7 -30,-15z"></path><path d="M2500,1010c-10,-6 -18,-56 -30,-190c-12,-129 -21,-185 -31,-195c-8,-9 -61,-24 -118,-35c-57,-11 -107,-23 -112,-26c-13,-8 -11,-50 4,-62c6,-5 57,-17 112,-27c55,-10 106,-23 114,-31c10,-9 19,-67 31,-191c8,-98 19,-184 23,-190c14,-22 56,-15 67,10c5,12 14,92 20,177c7,85 17,166 23,179c10,21 26,27 117,45c58,12 111,25 118,29c6,5 12,19 12,33c0,29 -16,37 -115,53c-116,19 -122,21 -133,45c-6,13 -16,95 -22,182c-15,188 -30,226 -80,194z"></path><path d="M3361,931c-14,-25 -5,-48 20,-56c27,-9 51,13 47,44c-4,34 -51,43 -67,12z"></path><path d="M1180,452c-16,-13 -21,-24 -16,-40c15,-46 76,-35 76,14c0,34 -32,48 -60,26z"></path></g></g></g></svg>